<?xml version="1.0" encoding="UTF-8"?>
<svg xmlns="http://www.w3.org/2000/svg" version="1.1" viewBox="0 0 400 400">
  <!-- Generator: Adobe Illustrator 28.7.1, SVG Export Plug-In . SVG Version: 1.2.0 Build 142)  -->
  <g>
    <g id="Layer_1">
      <path d="M281.1,200.42v-113.54c0-24.33-19.81-44.12-44.15-44.09-1.29,0-2.33,1.1-2.33,2.38v140.28c-8.03-.95-16.1-1.44-23.83-1.81V32.52c0-12.13-8.85-22.98-20.92-24.16-13.85-1.35-25.56,9.54-25.56,23.12v147.78c-9.47-1.97-17.34-4.57-23.86-7.7v-99.38c0-1.29-1.03-2.38-2.32-2.38-12.67-.02-24.72,5.45-33.07,15-12.57,14.38-10.92,32.96-10.63,36.67,3.15,40.4,23.02,63.19,68.8,72.3,6.35,1.26,14.1,2.13,23.22,2.99,10.46.99,21.05,1.05,21.62,1.09,10.83.67,43.32,1,62.83,12.99,15.35,9.43,29.14,30.18,13.91,50.9-1.2,1.63-2.44,3.12-3.72,4.55,0-8.32.45-17.51-.64-20.43-3.84-15.68-11.2-18.21-18.96-20.87,0,0-10.9-4.07-24.16-5.54-2.11-.23-2.72,1.44-2.72,2.36v65.42c-9.21,1.56-23.83,3.55-23.83,3.55v-71.44c0-1.28-1.01-2.33-2.28-2.38-7.27-.17-34.19-1.53-41.44-3.25-1.72-.41-2.76,1.19-2.76,2.36v88.07c-24.06,13.04-33.14,32.74-24.86,54.9,4.04,10.78,12.17,19.15,24.2,24.89,10.67,5.01,24.73,7.83,39.63,7.83,8.28,0,7.48-7.9,7.48-8.84v-55.63c0-1.42-1.65-2.51-3.12-2.33l-.29.04h-.01c-10.35,1.33-21.26,3-30.99,7.62-7.33,3.55-12.06,11.46-12.06,20.15v15.12c-15.74-10.8-23.93-37.88,12.53-54,16.82-7.44,36.09-8.37,61.4-12.75,17.9-3.1,32.39-7.2,44.91-17.16,4.93-3.88,9.25-8.38,13.21-13.78,23.35-31.83-1.27-60.95-15.25-69.77Z"/>
    </g>
  </g>
</svg>