<?xml version="1.0" encoding="UTF-8"?>
<svg xmlns="http://www.w3.org/2000/svg" xmlns:xlink="http://www.w3.org/1999/xlink" version="1.1" viewBox="0 0 400 400">
  <defs>
    <style>
      .cls-1 {
        fill: #14062b;
      }

      .cls-2 {
        fill: url(#linear-gradient);
      }
    </style>
    <linearGradient id="linear-gradient" x1="200" y1="319.27" x2="200" y2="95.39" gradientUnits="userSpaceOnUse">
      <stop offset=".11" stop-color="#d1fae5"/>
      <stop offset=".32" stop-color="#6ee7b7"/>
      <stop offset=".53" stop-color="#818ae1"/>
      <stop offset=".64" stop-color="#8b5cf6"/>
      <stop offset=".69" stop-color="#8253e8"/>
      <stop offset=".9" stop-color="#5b2cac"/>
      <stop offset="1" stop-color="#4c1d95"/>
    </linearGradient>
  </defs>
  <!-- Generator: Adobe Illustrator 28.7.1, SVG Export Plug-In . SVG Version: 1.2.0 Build 142)  -->
  <g>
    <g id="Layer_1">
      <circle class="cls-1" cx="200" cy="203.9" r="128"/>
      <path class="cls-2" d="M247.18,209.29c-1.76-1.98-3.75-3.71-5.9-5.17v-57.79c0-12.38-10.08-22.46-22.47-22.44-.65,0-1.19.56-1.19,1.21v71.4c-4.09-.48-8.19-.73-12.13-.92v-76.93c0-6.17-4.5-11.7-10.65-12.3-7.05-.69-13.01,4.86-13.01,11.77v75.22c-4.82-1-8.83-2.33-12.14-3.92v-50.58c0-.65-.53-1.21-1.18-1.21-6.45,0-12.58,2.77-16.83,7.63-3.7,4.23-5.61,9.68-5.41,15.2-.13,1.21-.07,2.54,0,3.46,1.6,21.33,12.75,32.73,36.12,36.98,1.94.36,3.99.66,6.07.91,4.17.5,8.73.7,13.55.9l2.11.09c4.62.21,9.53.47,14.26,1.11,7.48.97,13.27,2.76,17.72,5.5,2.09,1.27,3.99,2.85,5.63,4.7,8.37,9.54,3.81,18.01,1.45,21.21-.61.83-1.24,1.59-1.9,2.32v-7.43c-.11-.99-.22-1.98-.32-2.97-1.96-7.98-5.7-9.27-9.65-10.62l-.58-.2c-3.25-1.13-6.75-1.91-11.72-2.62-.34-.04-.7.05-.97.28-.27.23-.42.57-.42.92v33.3c-2.98.5-6.23.97-9.68,1.46l-2.45.35v-36.36c0-.65-.51-1.18-1.16-1.21l-.66-.04-2.17-.09c-4.98-.21-9.68-.41-14.21-.96-1.36-.16-2.72-.35-4.05-.56-.37-.06-.71.05-.98.28-.27.23-.42.57-.42.92v44.83c-12.25,6.64-16.87,16.66-12.65,27.95,2.05,5.49,6.19,9.75,12.32,12.67,5.43,2.55,12.59,3.96,20.17,3.98,1.84,0,3.55-1.3,3.8-3.13.06-.43.04-.85-.04-1.24,0-.05.05-.09.05-.13v-28.32c0-.73-.84-1.28-1.59-1.18v1.18s-.15-1.17-.15-1.17h0c-5.27.68-10.82,1.53-15.77,3.88-3.73,1.81-6.14,5.83-6.14,10.25v7.7c-2.81-1.88-4.77-4.25-5.82-7.05-3.99-10.66,4.44-17,12.2-20.43,4.22-1.86,9.1-3.23,14.12-3.95l6.64-.95c3.73-.53,7.25-1.02,10.49-1.58,9.11-1.58,16.49-3.67,22.86-8.73,2.51-1.97,4.71-4.27,6.72-7.01,6.97-9.47,6.26-21.09-1.86-30.34Z"/>
    </g>
  </g>
</svg>