<?xml version="1.0" encoding="UTF-8"?>
<svg xmlns="http://www.w3.org/2000/svg" xmlns:xlink="http://www.w3.org/1999/xlink" version="1.1" viewBox="0 0 400 400">
  <defs>
    <style>
      .cls-1 {
        fill: url(#linear-gradient);
      }
    </style>
    <linearGradient id="linear-gradient" x1="200" y1="418.45" x2="200" y2="-1.36" gradientUnits="userSpaceOnUse">
      <stop offset=".11" stop-color="#d1fae5"/>
      <stop offset=".32" stop-color="#6ee7b7"/>
      <stop offset=".53" stop-color="#818ae1"/>
      <stop offset=".64" stop-color="#8b5cf6"/>
      <stop offset=".69" stop-color="#8253e8"/>
      <stop offset=".9" stop-color="#5b2cac"/>
      <stop offset="1" stop-color="#4c1d95"/>
    </linearGradient>
  </defs>
  <!-- Generator: Adobe Illustrator 28.7.1, SVG Export Plug-In . SVG Version: 1.2.0 Build 142)  -->
  <g>
    <g id="Layer_1">
      <path class="cls-1" d="M287.98,209.05c-3.93-4.44-8.47-8.24-13.45-11.3v-107.74c0-22.17-17.97-40.13-40.14-40.13v135.26c-9.11-1.19-18.43-1.7-27.21-2.1h-.31V36.69c0-11.08-8.98-20.07-20.07-20.07s-20.07,8.98-20.07,20.07v142.69c-11.31-2.15-20.36-5.21-27.54-8.99v-94.54c-22.89,0-41,19.28-39.62,41.72q.14,2.88.3,5.14c3.03,40.32,21.42,62.45,65.6,70.47,3.65.68,7.52,1.25,11.48,1.72,7.83.95,16.35,1.31,25.38,1.7l4.22.18c8.77.4,18.07.89,26.95,2.11,14.14,1.83,25.08,5.22,33.5,10.39,3.97,2.41,7.56,5.41,10.64,8.89,15.83,18.04,7.19,34.05,2.74,40.11-1.84,2.51-3.79,4.74-5.87,6.79v-19.07c-3.39-16.85-10.12-18.42-18.41-21.3-5.92-2.06-12.46-3.53-21.72-4.85v62.56c-.4.07-.77.15-1.18.22-5.94,1.03-12.52,1.96-19.49,2.94l-6.86.99v-69.07c-.41-.02-.84-.05-1.25-.07l-3.92-.17c-9.52-.41-18.52-.79-27.2-1.84-2.61-.31-5.2-.68-7.76-1.08v83.54c-24.88,12.52-34.44,32.02-26.21,54.04,3.88,10.37,11.7,18.42,23.29,23.95,10.36,4.86,24.03,7.53,38.5,7.53,5.05,0,4.53-7.21,4.53-12.02v-50.03h-.17c-.18.02-.4.05-.55.07-9.04,1.16-19.86,2.73-28.94,7.05-.06.03-.11.05-.17.08-6.51,3.15-10.31,10.09-10.31,17.32v15.99c-6.58-3.77-11.04-8.73-13.3-14.77-7.53-20.16,8.39-32.14,23.07-38.63,7.97-3.52,17.2-6.1,26.67-7.46l12.49-1.8c7.08-1,13.76-1.94,19.91-3.01,17.23-2.98,31.18-6.93,43.22-16.51,4.76-3.74,8.91-8.08,12.7-13.25,13.17-17.9,11.83-39.87-3.51-57.35Z"/>
    </g>
  </g>
</svg>